<svg width="128" height="128" viewBox="0 0 128 128" fill="none" xmlns="http://www.w3.org/2000/svg">
<path d="M95.4689 58.6787L94.6472 55.081L73.0422 59.6121L90.2564 46.3749L87.2505 42.6064L69.9507 56.4017L79.791 35.97L76.4661 34.3688L65.7842 55.3573L66.1445 32H61.3244V54.4972L51.5126 34.1231L48.1876 35.7244L57.6427 56.2786L40.5708 42.1635L37.5656 45.9328L54.5193 59.4533L32.9476 54.5292L32.126 58.1269L54.1704 63.57L32 68.2192L33.073 72.919L55.7197 67.7507L37.2124 82.5087L39.5135 85.3936L57.8869 71.2658L47.6778 91.5394L52.0209 93.6312L61.3244 74.3145V96H65.0146L65.4176 73.1803L74.9382 93.8769L79.2812 91.7851L69.4417 71.3533L87.6029 85.8365L89.9033 82.9508L71.6951 67.8967L94.2699 73.4708L95.3428 68.771L73.2963 63.7387L95.4689 58.6787Z" fill="black"/>
</svg>
