<svg width="128" height="128" viewBox="0 0 128 128" fill="none" xmlns="http://www.w3.org/2000/svg">
<path d="M96.2229 58.8318L95.7814 56.4956L74.7644 58.7815L91.5874 46.2793L89.1955 42.9711L71.8214 55.5341L80.8074 35.7874L78.7266 34.6363L66.8718 52.5859L65.1888 31.1407H62.8111L61.1133 52.7689L51.994 33.3652L48.2992 35.1022L56.9666 54.1867L39.6836 42.0104L38.1659 43.8415L53.7355 58.9496L32.977 53.5896L31.9562 57.5422L52.1807 63.0474L31.777 68.5844L32.2185 70.9215L53.7866 68.5748L36.4125 81.1378L38.8044 84.4452L55.9488 72.3867L47.1925 91.6289L49.2733 92.7807L61.1281 74.8311L62.8111 96.2763H65.1888L66.8429 75.2L76.0059 94.0511L79.7007 92.3148L70.5807 72.9111L88.3162 85.4059L89.834 83.5748L74.6622 68.8526L95.0229 73.8267L96.0436 69.8741L75.2851 64.5141L96.2229 58.8318Z" fill="black"/>
</svg>
