<svg width="128" height="128" viewBox="0 0 128 128" fill="none" xmlns="http://www.w3.org/2000/svg">
<path d="M24.5223 88.0763C24.5934 88.1911 24.666 88.3052 24.7357 88.4215C24.8853 88.6718 24.8727 88.9104 24.6542 89.0904C24.3594 89.3341 24.1127 89.6252 23.846 89.8941C23.1275 90.617 22.4445 91.3763 21.7542 92.1267C21.6216 92.2704 21.5349 92.4541 21.3875 92.5881C21.0475 92.8948 20.7986 93.283 20.4616 93.5993C20.2823 93.7667 20.0942 93.9289 19.9319 94.1133C19.726 94.3489 19.546 94.5615 19.3053 94.7607C19.0371 94.983 18.7957 95.2356 18.5712 95.5C18.5075 95.5741 18.4371 95.6296 18.3616 95.6822C18.106 95.8593 18.0008 95.857 17.8119 95.6163C17.6668 95.4311 17.5497 95.2222 17.4542 95.003C17.4038 94.8859 17.4327 94.8044 17.509 94.7244C17.6868 94.5393 17.8705 94.3607 18.0438 94.1711C18.2453 93.9519 18.4119 93.7 18.6438 93.5096C18.7564 93.417 18.7616 93.3215 18.6734 93.2163C18.4868 92.9941 18.3986 92.7133 18.2245 92.48C18.0223 92.2081 17.9053 91.8896 17.7534 91.5904C17.5979 91.2844 17.3616 91.0356 17.2127 90.7274C17.1645 90.6289 17.1082 90.6104 16.9912 90.6356C16.6675 90.7037 16.366 90.8348 16.0549 90.9356C15.8594 90.9993 15.6579 91.04 15.4668 91.1311C14.926 91.3904 14.8697 90.5822 14.6194 90.3222C14.5453 90.2459 14.5845 90.1185 14.666 90.0407C14.7327 89.977 14.8097 89.9052 14.8949 89.8844C15.1534 89.8207 15.3927 89.6904 15.6601 89.6563C15.8453 89.6319 16.026 89.5874 16.2008 89.5185C16.4875 89.4059 16.7845 89.3252 17.086 89.26C17.489 89.1733 17.8897 89.063 18.2786 88.9348C18.5808 88.8348 18.886 88.7859 19.189 88.7133C19.5986 88.6156 20.0008 88.5222 20.3934 88.3674C20.9482 88.1504 21.5653 87.9719 22.1505 87.8504C22.5682 87.7637 22.9853 87.6733 23.4001 87.5711C23.5697 87.5296 23.746 87.5133 23.9201 87.4941C24.0771 87.4763 24.1994 87.5215 24.2764 87.6778C24.3445 87.817 24.4379 87.9444 24.5208 88.077L24.5223 88.0763ZM22.5171 89.1956C22.4838 89.2089 22.452 89.2237 22.4386 89.2304C22.1031 89.4074 21.7453 89.477 21.3764 89.5496C20.8171 89.66 20.2638 89.7941 19.7134 89.9437C19.3616 90.0393 19.0053 90.1244 18.6519 90.2178C18.5179 90.2526 18.4905 90.34 18.5942 90.4452C18.6897 90.543 18.7616 90.6548 18.8408 90.763C18.9905 90.9667 19.0431 91.2126 19.2127 91.4044C19.3023 91.5052 19.3082 91.6356 19.3638 91.7548C19.4423 91.9222 19.5623 92.0674 19.6245 92.2437C19.6838 92.4119 19.7631 92.4163 19.8564 92.2726C20.146 91.8289 20.529 91.4689 20.8919 91.0911C21.0194 90.9585 21.1557 90.8333 21.2749 90.6941C21.4971 90.4356 21.7245 90.1807 21.9594 89.9326C22.0764 89.8089 22.1957 89.6859 22.3157 89.5659C22.406 89.4756 22.5727 89.3674 22.6327 89.2548C22.6905 89.1459 22.5942 89.1652 22.5164 89.1948H22.5157L22.5171 89.1956Z" fill="black"/>
<path d="M31.4424 98.62C30.8676 99.1548 30.2913 99.6904 29.7165 100.226C29.3543 100.563 29.0076 100.921 28.6232 101.23C28.2143 101.562 27.8395 101.932 27.432 102.262C27.015 102.6 26.5617 102.895 26.0469 103.072C25.7106 103.187 25.3565 103.191 25.0076 103.232C24.8002 103.124 24.552 103.166 24.3461 103.018C24.1646 102.888 23.9195 102.866 23.738 102.716C23.5572 102.566 23.3528 102.447 23.1676 102.301C22.6046 101.855 22.2765 101.269 21.9032 100.673C21.6617 100.287 21.5809 99.8304 21.6743 99.3652C21.6869 99.3044 21.6972 99.2452 21.7017 99.183C21.7432 98.5459 22.0469 98.04 22.4572 97.5667C22.6869 97.3015 22.9432 97.0652 23.1891 96.8215C23.312 96.6993 23.4069 96.5504 23.5306 96.4311C23.6632 96.303 23.8298 96.223 23.9609 96.0926C24.1135 95.9407 24.2632 95.7859 24.4217 95.64C24.7409 95.343 25.075 95.0622 25.4091 94.783C25.8483 94.4163 26.2565 94.0178 26.7032 93.6615C26.9002 93.5052 27.075 93.3044 27.255 93.1193C27.3113 93.06 27.372 93 27.4402 92.9556C27.5387 92.8919 27.6876 92.9037 27.752 92.9867C27.9232 93.203 28.155 93.3674 28.278 93.6281C28.3669 93.8178 28.3424 93.8993 28.2039 94.0815C27.7165 94.7259 27.038 95.2504 26.4491 95.8007C26.3372 95.9052 26.2039 95.9882 26.095 96.097C25.7587 96.4356 25.435 96.7874 25.095 97.1222C24.8254 97.3874 24.535 97.6326 24.258 97.8926C24.0024 98.1326 23.7343 98.3585 23.5135 98.6363C23.3661 98.8215 23.2313 99.0163 23.1283 99.2259C23.0365 99.4141 22.9846 99.6037 23.038 99.8422C23.1269 100.233 23.3032 100.549 23.5491 100.861C23.7602 101.129 23.9957 101.353 24.2506 101.575C24.655 101.927 25.478 102.007 25.9802 101.721C26.3469 101.513 26.6972 101.284 26.9698 100.944C27.1143 100.765 27.3209 100.637 27.4913 100.477C27.7757 100.21 28.0802 99.9644 28.3676 99.703C28.595 99.4963 28.8083 99.2674 29.0387 99.0585C29.2728 98.8467 29.5291 98.6593 29.7661 98.4496C30.0054 98.2385 30.2439 98.023 30.4617 97.7896C30.6202 97.6207 30.7935 97.4659 30.952 97.2963C31.2032 97.0281 31.5306 96.9267 31.858 97.2926C31.8995 97.3393 31.9395 97.3867 31.9861 97.4282C32.2106 97.6267 32.2254 97.7289 32.0587 97.9711C31.9595 98.1156 31.8528 98.2541 31.7143 98.3652C31.618 98.4437 31.5306 98.5341 31.4409 98.6193H31.4417L31.4424 98.62Z" fill="black"/>
<path d="M31.3861 109.721C30.9417 109.351 30.5839 108.984 30.3061 108.544C30.2128 108.398 30.092 108.272 30.0068 108.116C29.6928 107.541 29.6809 106.9 29.5802 106.279C29.5617 106.166 29.6031 106.08 29.7157 105.998C29.9631 105.817 30.2587 105.81 30.5305 105.724C30.6409 105.688 30.8298 105.821 30.8691 105.943C30.8876 106.001 30.8928 106.065 30.8994 106.127C30.9528 106.613 31.0802 107.083 31.2646 107.535C31.3528 107.751 31.4542 107.965 31.6187 108.144C31.8357 108.38 32.2335 108.566 32.5439 108.64C33.1528 108.787 33.7291 108.839 34.2831 108.526C34.4839 108.413 34.5809 108.196 34.6409 107.973C34.7261 107.661 34.6224 107.398 34.4454 107.144C34.258 106.874 34.075 106.601 33.9105 106.316C33.8135 106.148 33.6668 106.029 33.5342 105.907C33.2831 105.679 33.0831 105.402 32.8876 105.126C32.6765 104.824 32.4639 104.604 32.4024 104.229C32.3298 103.783 32.2891 103.336 32.3631 102.886C32.4417 102.404 32.6883 101.998 33.0046 101.633C33.1254 101.493 33.2861 101.398 33.4365 101.293C33.6609 101.138 33.9061 101.021 34.1624 100.932C34.4528 100.83 34.6609 100.804 34.9617 100.811C35.2905 100.819 35.6135 100.86 35.9313 100.976C36.3794 101.141 36.7876 101.367 37.1631 101.656C37.4461 101.874 37.552 102.007 37.8342 102.591C38.0683 103.078 38.2157 103.594 38.2261 104.139C38.2328 104.44 38.1883 104.481 37.9083 104.576C37.698 104.647 37.4809 104.648 37.2654 104.668C37.1024 104.684 37.0202 104.612 36.9683 104.455C36.9239 104.316 36.8654 104.178 36.8505 104.036C36.8031 103.574 36.5424 103.207 36.3276 102.82C36.0809 102.373 35.6609 102.222 35.1854 102.187C34.9357 102.168 34.6505 102.23 34.4283 102.344C34.1224 102.5 33.7224 102.948 33.7794 103.308C33.8298 103.629 33.9061 103.949 34.0431 104.245C34.1691 104.519 34.4039 104.713 34.5631 104.964C34.7617 105.276 35.0809 105.481 35.2661 105.808C35.4691 106.167 35.7231 106.507 35.8624 106.889C36.0268 107.337 36.1683 107.807 36.098 108.307C36.0668 108.533 35.9557 108.717 35.8609 108.908C35.6498 109.332 35.2928 109.619 34.915 109.895C34.4713 110.219 33.9594 110.247 33.452 110.31C33.0713 110.358 32.698 110.296 32.335 110.173C32.3254 110.17 32.3142 110.171 32.3054 110.166C31.9802 110.01 31.6565 109.853 31.3846 109.721L31.3861 109.721Z" fill="black"/>
<path d="M43.9541 108.113C43.786 108.35 43.6763 108.636 43.5349 108.904C43.2808 109.384 43 109.858 42.843 110.378C42.72 110.784 42.4956 111.147 42.3963 111.559C42.3926 111.579 42.3786 111.596 42.3682 111.613C42.1741 111.93 42.0126 112.26 41.9075 112.619C41.8586 112.785 41.7415 112.927 41.6563 113.08C41.5104 113.347 41.4119 113.639 41.2926 113.92C41.1882 114.164 41.0934 114.414 40.9734 114.65C40.8652 114.862 40.5104 114.948 40.3275 114.796C40.2275 114.713 40.123 114.659 40.0126 114.606C39.7808 114.496 39.6275 114.269 39.6971 114.021C39.7341 113.882 39.8126 113.76 39.8852 113.636C40.2349 113.042 40.4186 112.356 40.7238 111.736C40.8904 111.396 41.0245 111.03 41.2075 110.701C41.2675 110.593 41.3341 110.486 41.3749 110.37C41.4371 110.195 41.4786 110.083 41.5741 109.925C41.68 109.751 41.7 109.539 41.7941 109.36C41.9808 109.005 42.1149 108.629 42.2771 108.264C42.4519 107.87 42.6815 107.501 42.8141 107.086C42.8497 106.973 42.9556 106.886 42.9971 106.766C43.0223 106.693 43.0089 106.633 42.9349 106.62C42.6741 106.573 42.4978 106.364 42.2482 106.284C42.0104 106.207 41.7941 106.058 41.5734 105.933C41.4904 105.886 41.4067 105.854 41.3156 105.83C41.0926 105.774 40.9 105.657 40.7141 105.524C40.5963 105.441 40.56 105.333 40.5741 105.201C40.6052 104.907 40.7186 104.647 40.9215 104.43C40.9734 104.374 41.0371 104.35 41.1186 104.378C41.2823 104.436 41.4541 104.473 41.6119 104.542C42.026 104.724 42.4275 104.939 42.8475 105.104C43.4437 105.339 43.9712 105.701 44.5371 105.99C45.2119 106.334 45.8986 106.651 46.5756 106.99C46.7682 107.085 46.9541 107.193 47.143 107.296C47.1875 107.321 47.2282 107.354 47.2749 107.373C47.463 107.45 47.5126 107.538 47.4497 107.713C47.4119 107.82 47.3815 107.927 47.3541 108.037C47.2845 108.318 47.0134 108.606 46.6134 108.389C46.2349 108.184 45.8119 108.081 45.4386 107.873C45.1223 107.699 44.7815 107.579 44.4682 107.403C44.3652 107.345 44.2978 107.361 44.2482 107.474C44.1563 107.683 44.0556 107.889 43.9526 108.11V108.112L43.9541 108.113Z" fill="black"/>
<path d="M47.5327 116.384C47.8105 115.449 48.0964 114.513 48.3675 113.578C48.4401 113.327 48.5238 113.076 48.5994 112.824C48.7645 112.274 48.9268 111.723 49.0771 111.169C49.1949 110.734 49.3571 110.313 49.4675 109.878C49.5838 109.42 49.7653 108.982 49.8749 108.523C49.8919 108.453 49.9216 108.384 49.9608 108.324C50.0482 108.194 50.2282 108.132 50.3571 108.214C50.5379 108.33 50.7394 108.373 50.9356 108.436C51.2082 108.525 51.2105 108.593 51.1645 108.902C51.1038 109.306 50.9764 109.687 50.8505 110.069C50.7068 110.505 50.6097 110.956 50.4342 111.384C50.3208 111.663 50.3001 111.979 50.1831 112.261C50.0045 112.689 49.9779 113.156 49.8357 113.59C49.7171 113.953 49.5979 114.315 49.489 114.681C49.2312 115.545 48.9734 116.409 48.7149 117.273C48.6853 117.372 48.666 117.474 48.5942 117.556C48.5349 117.624 48.4682 117.676 48.3786 117.64C48.2305 117.581 48.0719 117.599 47.9201 117.567C47.849 117.553 47.7771 117.539 47.709 117.514C47.4008 117.402 47.3016 117.233 47.3823 116.916C47.4275 116.737 47.4423 116.547 47.5342 116.387H47.5327V116.384Z" fill="black"/>
<path d="M59.9224 114.267C59.9469 114.047 59.9713 113.827 59.995 113.606C60.021 113.356 60.0432 113.107 60.0765 112.859C60.1447 112.359 60.1521 111.855 60.2469 111.358C60.2839 111.159 60.3232 110.947 60.2595 110.74C60.2476 110.703 60.2632 110.658 60.2654 110.617C60.2891 110.221 60.415 110.109 60.7958 110.188C60.9595 110.222 61.1224 110.243 61.2861 110.262C61.4943 110.287 61.6165 110.401 61.5958 110.601C61.5365 111.151 61.535 111.704 61.4535 112.254C61.401 112.61 61.3958 112.972 61.3313 113.326C61.2691 113.671 61.2254 114.027 61.1572 114.37C61.0876 114.716 61.0039 115.06 60.9721 115.413C60.9298 115.884 60.8321 116.356 60.8306 116.829C60.8298 117.265 60.7817 117.696 60.7321 118.122C60.6787 118.57 60.7024 119.021 60.6276 119.465C60.6017 119.619 60.4076 119.785 60.218 119.768C59.7417 119.725 59.2654 119.675 58.7921 119.605C58.598 119.577 58.521 119.396 58.4624 119.227C58.3328 118.845 58.2232 118.457 58.0772 118.083C57.9387 117.727 57.8232 117.364 57.6565 117.018C57.5328 116.762 57.4632 116.476 57.3587 116.207C57.2291 115.872 57.098 115.538 56.938 115.214C56.8454 115.03 56.7847 114.83 56.6965 114.644C56.555 114.347 56.4195 114.045 56.3039 113.742C56.1572 113.36 55.9158 113.01 55.8706 112.588C55.8661 112.55 55.8476 112.506 55.8002 112.508C55.7891 112.508 55.7772 112.561 55.7713 112.592C55.7039 112.935 55.6284 113.276 55.5424 113.616C55.4647 113.919 55.4906 114.251 55.4002 114.548C55.3232 114.801 55.3506 115.063 55.3298 115.322C55.3128 115.554 55.2372 115.773 55.2239 116.006C55.2076 116.29 55.1965 116.573 55.175 116.856C55.1187 117.572 55.0269 118.285 54.9061 118.99C54.8765 119.162 54.6906 119.31 54.5254 119.264C54.2565 119.191 53.9706 119.205 53.7113 119.084C53.5217 118.995 53.4698 118.937 53.4787 118.734C53.4817 118.661 53.4765 118.582 53.5032 118.519C53.6009 118.286 53.5772 118.035 53.6054 117.795C53.6395 117.51 53.6632 117.224 53.7217 116.944C53.7898 116.61 53.7721 116.271 53.8069 115.936C53.8298 115.712 53.8395 115.487 53.8409 115.261C53.8409 115.06 53.938 114.861 53.9535 114.653C53.9743 114.369 53.9958 114.084 54.0128 113.799C54.015 113.747 54.0143 113.7 54.0343 113.649C54.1291 113.414 54.1387 113.161 54.1461 112.916C54.1506 112.727 54.1706 112.54 54.2328 112.376C54.3291 112.116 54.3358 111.848 54.3565 111.587C54.3795 111.289 54.4365 110.999 54.4972 110.711C54.5358 110.529 54.5832 110.347 54.5698 110.165C54.5602 110.046 54.6195 109.95 54.6247 109.837C54.6284 109.734 54.7202 109.657 54.8313 109.63C54.9713 109.597 55.1091 109.558 55.2587 109.581C55.4543 109.611 55.6476 109.624 55.8439 109.568C55.9891 109.526 56.0876 109.604 56.181 109.718C56.375 109.956 56.4476 110.252 56.5935 110.511C56.8543 110.977 56.9595 111.503 57.1691 111.987C57.2795 112.242 57.4098 112.49 57.4965 112.753C57.6032 113.075 57.7758 113.367 57.8684 113.696C57.9424 113.961 58.0506 114.223 58.178 114.468C58.3217 114.747 58.4158 115.042 58.515 115.336C58.6898 115.855 58.9195 116.347 59.1706 116.831C59.198 116.886 59.2358 116.939 59.2787 116.982C59.3624 117.065 59.478 117.144 59.581 117.099C59.7195 117.04 59.655 116.76 59.6661 116.645C59.721 116.092 59.8335 115.551 59.8639 114.993C59.8765 114.752 59.8987 114.511 59.9232 114.27L59.9224 114.267Z" fill="black"/>
<path d="M66.3446 119.459C66.3483 119.523 66.3335 119.587 66.312 119.65C66.2698 120.053 66.229 120.427 66.0305 120.786C65.9305 120.967 65.7698 121.322 65.5587 121.34C65.4838 121.347 65.4098 121.324 65.3387 121.296C65.1564 121.222 64.9113 121.056 64.9861 120.796C65.0468 120.586 65.0675 120.419 65.0757 120.19C65.0757 120.17 65.0757 120.156 65.0757 120.137C65.0342 120.127 64.9927 120.121 64.9513 120.109C64.7179 120.006 64.5557 119.757 64.5372 119.47C64.5357 119.435 64.5372 119.399 64.5416 119.364C64.6698 118.526 64.7824 118.104 65.7683 118.496C65.9105 118.533 66.0327 118.631 66.1179 118.764C66.1861 118.82 66.2453 118.886 66.2853 118.98C66.3268 119.079 66.3416 119.188 66.3416 119.299C66.3416 119.335 66.3379 119.371 66.335 119.407C66.3372 119.424 66.3431 119.439 66.3453 119.456L66.3446 119.459Z" fill="black"/>
<path d="M76.6246 110.817C76.6439 111.107 76.7395 111.399 76.7987 111.696C76.9039 112.228 76.9854 112.773 77.1906 113.276C77.3513 113.668 77.4061 114.093 77.5883 114.474C77.5972 114.492 77.5987 114.514 77.6009 114.535C77.6498 114.903 77.7328 115.261 77.878 115.606C77.9446 115.764 77.9432 115.95 77.9735 116.121C78.0276 116.42 78.1365 116.71 78.2202 117.002C78.2943 117.259 78.378 117.512 78.4343 117.771C78.4839 118.004 78.2632 118.294 78.0239 118.291C77.895 118.29 77.7802 118.314 77.6602 118.343C77.4098 118.404 77.1491 118.324 77.0461 118.088C76.9883 117.957 76.9706 117.813 76.9491 117.671C76.8461 116.99 76.5565 116.341 76.4009 115.667C76.3165 115.299 76.1898 114.93 76.1239 114.559C76.1032 114.438 76.0869 114.312 76.0454 114.196C75.9832 114.021 75.9454 113.908 75.9195 113.724C75.892 113.522 75.7743 113.346 75.7343 113.147C75.6557 112.754 75.5224 112.378 75.418 111.992C75.3061 111.576 75.2513 111.144 75.0928 110.739C75.0498 110.629 75.0757 110.495 75.0335 110.376C75.0069 110.304 74.958 110.265 74.8928 110.301C74.6609 110.43 74.392 110.379 74.1483 110.473C73.915 110.563 73.6528 110.584 73.4032 110.625C73.3098 110.641 73.2246 110.669 73.138 110.71C72.9306 110.806 72.7061 110.836 72.4787 110.851C72.335 110.861 72.2387 110.8 72.1661 110.688C72.0054 110.439 71.9283 110.167 71.9498 109.87C71.9543 109.793 71.9891 109.735 72.0691 109.705C72.232 109.647 72.3898 109.568 72.555 109.521C72.9928 109.401 73.438 109.315 73.8691 109.179C74.4802 108.984 75.1165 108.933 75.7387 108.8C76.4787 108.641 77.212 108.456 77.9513 108.29C78.1609 108.244 78.3735 108.21 78.5854 108.171C78.6357 108.161 78.6883 108.162 78.7365 108.147C78.9306 108.09 79.0246 108.125 79.0869 108.301C79.1239 108.409 79.1683 108.51 79.2172 108.613C79.3395 108.874 79.3106 109.268 78.8639 109.353C78.4402 109.433 78.0476 109.619 77.6276 109.693C77.2713 109.757 76.932 109.879 76.578 109.94C76.4617 109.96 76.4194 110.015 76.4513 110.134C76.512 110.354 76.5639 110.576 76.6232 110.813V110.815L76.6246 110.817Z" fill="black"/>
<path d="M85.3356 112.864C85.517 113.259 85.6963 113.655 85.88 114.048C85.9474 114.192 86.0111 114.223 86.1133 114.146C86.5333 113.83 87.0415 113.693 87.5015 113.459C87.8615 113.275 88.2496 113.167 88.6163 113.002C88.7852 112.927 88.9267 112.81 89.0941 112.727C89.2904 112.63 89.497 112.556 89.6956 112.461C89.9696 112.331 90.1489 112.411 90.3059 112.679C90.337 112.732 90.3378 112.79 90.3733 112.844C90.537 113.094 90.5259 113.174 90.3082 113.37C90.223 113.447 90.1252 113.507 90.0163 113.555C89.5978 113.737 89.1963 113.962 88.7785 114.139C88.5259 114.247 88.2941 114.399 88.0348 114.493C87.6993 114.614 87.4007 114.779 87.0793 114.926C86.6881 115.105 86.3148 115.327 85.9185 115.5C85.76 115.57 85.6304 115.696 85.4467 115.72C85.2252 115.751 85.1385 115.708 85.04 115.494C84.9674 115.336 84.8919 115.178 84.8015 115.028C84.6104 114.71 84.4874 114.361 84.3111 114.034C84.0407 113.534 83.8556 112.987 83.6193 112.469C83.2163 111.581 82.8082 110.696 82.3889 109.817C82.1993 109.421 81.9919 109.021 81.8815 108.587C81.8104 108.304 81.6304 108.069 81.5385 107.795C81.5348 107.785 81.5289 107.776 81.5244 107.767C81.2904 107.334 81.3119 107.219 81.7422 106.993C83.043 106.31 84.3956 105.716 85.7474 105.143C85.983 105.043 86.223 104.951 86.4659 104.875C86.6845 104.805 86.6689 104.827 86.7822 105.029C86.9052 105.244 87.0067 105.468 87.1141 105.69C87.2156 105.901 87.2104 105.931 86.9963 106.016C86.6993 106.136 86.4511 106.34 86.1511 106.457C85.5452 106.694 84.9526 106.963 84.3541 107.219C83.9585 107.387 83.563 107.553 83.1667 107.719C83.0578 107.764 83.0696 107.801 83.097 107.921C83.2059 108.396 83.5459 108.753 83.7044 109.201C83.8274 109.548 83.98 109.884 84.1193 110.224C84.1393 110.274 84.1504 110.299 84.2267 110.27C84.3422 110.227 84.4622 110.194 84.5741 110.141C84.9563 109.958 85.3763 109.849 85.737 109.634C85.9637 109.499 86.2259 109.43 86.4563 109.301C86.6482 109.194 86.8622 109.216 86.9741 109.433C87.0696 109.617 87.1585 109.807 87.2319 110C87.297 110.173 87.2563 110.275 87.1 110.366C86.7889 110.547 86.457 110.682 86.1185 110.799C85.837 110.896 85.5615 110.996 85.3148 111.168C85.1807 111.261 85.0067 111.278 84.8711 111.379C84.7156 111.494 84.7015 111.493 84.7844 111.681C84.9593 112.08 85.1467 112.473 85.3348 112.866L85.3356 112.864Z" fill="black"/>
<path d="M88.6941 103.499C88.8393 103.349 89.0563 103.289 89.2423 103.176C89.4156 103.07 89.6037 103.107 89.783 103.181C90.243 103.37 90.6993 103.567 91.1615 103.751C91.6993 103.965 92.2408 104.169 92.78 104.379C92.8771 104.417 92.966 104.47 93.063 104.509C93.2052 104.565 93.2719 104.528 93.2586 104.385C93.2304 104.065 93.24 103.745 93.2289 103.425C93.2097 102.887 93.18 102.35 93.1519 101.813C93.1363 101.502 93.1163 101.192 93.0926 100.881C93.0726 100.616 93.1512 100.411 93.3645 100.226C93.5452 100.069 93.7341 99.9237 93.9208 99.777C94.106 99.6296 94.246 99.677 94.3223 99.8978C94.3489 99.9763 94.3578 100.059 94.3497 100.144C94.3208 100.424 94.3549 100.701 94.3778 100.981C94.4163 101.476 94.4178 101.975 94.4356 102.473C94.46 103.093 94.4423 103.714 94.5208 104.333C94.5437 104.506 94.5208 104.684 94.526 104.86C94.5312 105.068 94.5526 105.083 94.7312 105.153C95.3563 105.4 95.9874 105.634 96.5993 105.918C97.0971 106.148 97.6178 106.327 98.1178 106.552C98.5341 106.739 98.9726 106.871 99.3749 107.09C99.4297 107.119 99.4875 107.144 99.5386 107.179C99.6341 107.246 99.6526 107.344 99.5556 107.407C99.2934 107.573 99.0986 107.823 98.8104 107.961C98.6304 108.048 98.4845 108.053 98.3104 107.981C97.8497 107.792 97.386 107.611 96.9215 107.43C96.5356 107.279 96.1467 107.133 95.7593 106.984C95.6734 106.95 95.5786 106.918 95.5112 106.859C95.2986 106.67 95.0178 106.653 94.7719 106.55C94.6675 106.507 94.6156 106.548 94.6208 106.67C94.6334 106.936 94.5963 107.2 94.6667 107.47C94.7637 107.842 94.7097 108.234 94.7319 108.616C94.766 109.206 94.7504 109.8 94.8075 110.387C94.843 110.742 94.6645 110.94 94.4223 111.103C94.2519 111.218 94.0697 111.319 93.8949 111.431C93.7452 111.527 93.6645 111.491 93.6326 111.318C93.603 111.155 93.5749 110.99 93.566 110.824C93.52 109.987 93.4963 109.148 93.4334 108.313C93.3978 107.827 93.3586 107.341 93.3386 106.854C93.3297 106.627 93.3178 106.4 93.3156 106.173C93.3134 105.957 93.3067 105.942 93.0956 105.86C92.1704 105.497 91.2437 105.139 90.3215 104.77C89.9474 104.621 89.5586 104.503 89.2023 104.304C89.0682 104.23 88.9104 104.201 88.7645 104.151C88.6956 104.127 88.623 104.11 88.5615 104.076C88.2986 103.926 88.2956 103.759 88.5489 103.59C88.5919 103.561 88.6371 103.535 88.6941 103.499V103.499Z" fill="black"/>
<path d="M97.7342 95.7244C97.8283 95.6267 97.9209 95.5281 98.0165 95.4326C98.2224 95.2267 98.4572 95.18 98.6846 95.3474C98.9928 95.5733 99.3365 95.7415 99.6617 95.9341C100.539 96.4533 101.442 96.9289 102.339 97.4148C102.511 97.5081 102.711 97.5474 102.876 97.657C103.256 97.9111 103.694 98.0578 104.084 98.3067C104.29 98.4393 104.493 98.5822 104.712 98.6941C104.991 98.8363 105.241 98.9585 105.494 99.143C105.774 99.3482 106.079 99.5207 106.39 99.6733C106.476 99.7163 106.548 99.7711 106.618 99.8318C106.851 100.036 106.876 100.139 106.689 100.381C106.545 100.567 106.371 100.731 106.182 100.877C106.082 100.956 105.996 100.947 105.899 100.893C105.676 100.765 105.458 100.631 105.233 100.509C104.971 100.368 104.685 100.268 104.443 100.09C104.327 100.003 104.233 100.021 104.151 100.133C103.982 100.367 103.732 100.522 103.548 100.749C103.335 101.011 103.054 101.203 102.801 101.424C102.543 101.65 102.359 101.939 102.097 102.159C102.013 102.23 102.009 102.289 102.062 102.397C102.208 102.693 102.408 102.953 102.583 103.23C102.692 103.404 102.781 103.59 102.916 103.753C103.3 104.213 102.53 104.467 102.339 104.773C102.284 104.863 102.15 104.856 102.055 104.797C101.977 104.747 101.888 104.69 101.847 104.613C101.722 104.378 101.537 104.178 101.438 103.927C101.369 103.753 101.282 103.589 101.172 103.437C100.993 103.186 100.841 102.919 100.705 102.642C100.521 102.273 100.316 101.91 100.096 101.566C99.9261 101.297 99.8031 101.013 99.6587 100.736C99.4631 100.364 99.2742 99.997 99.0276 99.6533C98.6809 99.1689 98.3565 98.6141 98.095 98.077C97.9083 97.6933 97.7187 97.3104 97.5179 96.9333C97.4365 96.7793 97.3772 96.6126 97.3157 96.4482C97.2609 96.3015 97.2742 96.1711 97.4068 96.0585C97.5254 95.9578 97.6254 95.8363 97.7335 95.7244H97.7342ZM99.3105 97.3926C99.332 97.4222 99.3542 97.4489 99.3639 97.46C99.618 97.743 99.7728 98.0719 99.9342 98.4119C100.179 98.9274 100.444 99.4304 100.724 99.9259C100.902 100.245 101.073 100.568 101.25 100.888C101.317 101.01 101.408 101.016 101.485 100.89C101.556 100.772 101.646 100.676 101.733 100.572C101.894 100.376 102.119 100.265 102.263 100.053C102.339 99.9415 102.464 99.9044 102.565 99.8207C102.709 99.703 102.821 99.5511 102.976 99.4474C103.123 99.3489 103.108 99.2704 102.947 99.2156C102.446 99.0437 102.003 98.7607 101.548 98.5015C101.388 98.4104 101.233 98.3089 101.068 98.2274C100.763 98.0756 100.46 97.9178 100.162 97.7511C100.014 97.6674 99.8654 97.5822 99.7187 97.4948C99.6091 97.4296 99.4639 97.2941 99.3394 97.2637C99.2202 97.2341 99.2624 97.323 99.3098 97.3919L99.3105 97.3926Z" fill="black"/>
<path d="M111.608 94.3437C111.256 94.803 110.902 95.1733 110.474 95.4696C110.33 95.5689 110.21 95.6941 110.056 95.7852C109.494 96.1222 108.853 96.1585 108.237 96.283C108.125 96.3059 108.038 96.2674 107.951 96.1593C107.76 95.9185 107.743 95.6237 107.645 95.3556C107.605 95.2459 107.731 95.0533 107.852 95.0081C107.909 94.9867 107.973 94.9793 108.033 94.9711C108.519 94.8985 108.982 94.7526 109.428 94.5511C109.64 94.4541 109.851 94.3452 110.022 94.1733C110.25 93.9459 110.421 93.5422 110.483 93.2289C110.606 92.6148 110.636 92.037 110.301 91.4948C110.179 91.2985 109.959 91.2096 109.734 91.1578C109.419 91.0852 109.16 91.1993 108.913 91.3859C108.65 91.583 108.384 91.777 108.106 91.9526C107.942 92.0555 107.828 92.2067 107.712 92.3444C107.493 92.6044 107.225 92.8156 106.956 93.0207C106.663 93.2444 106.451 93.4659 106.078 93.5407C105.636 93.6311 105.19 93.6889 104.738 93.6326C104.253 93.5733 103.837 93.3422 103.46 93.04C103.316 92.9252 103.214 92.7681 103.104 92.6222C102.941 92.4044 102.815 92.1637 102.715 91.9104C102.602 91.6244 102.567 91.417 102.563 91.1156C102.558 90.7867 102.587 90.4622 102.69 90.1407C102.837 89.6859 103.048 89.2696 103.322 88.8822C103.529 88.5911 103.657 88.4807 104.231 88.1756C104.708 87.9222 105.218 87.7548 105.763 87.723C106.063 87.7052 106.106 87.7474 106.211 88.0237C106.291 88.2304 106.301 88.4481 106.329 88.6622C106.35 88.8237 106.282 88.9089 106.127 88.9667C105.991 89.0178 105.854 89.0807 105.713 89.1007C105.253 89.1659 104.896 89.4407 104.518 89.6704C104.08 89.9356 103.947 90.36 103.93 90.837C103.92 91.0867 103.994 91.3689 104.116 91.5874C104.285 91.8867 104.748 92.2696 105.105 92.1985C105.425 92.1348 105.741 92.0467 106.032 91.8978C106.301 91.7607 106.486 91.5185 106.73 91.3496C107.034 91.1393 107.227 90.8118 107.548 90.6141C107.898 90.397 108.228 90.1304 108.605 89.9756C109.046 89.7941 109.509 89.6348 110.013 89.6852C110.239 89.7081 110.428 89.8118 110.623 89.8985C111.055 90.0941 111.356 90.4393 111.646 90.8059C111.988 91.2363 112.036 91.7467 112.118 92.2518C112.18 92.6311 112.133 93.0059 112.025 93.3741C112.022 93.3844 112.023 93.3955 112.019 93.4052C111.875 93.7355 111.73 94.0652 111.61 94.3422H111.608V94.3437Z" fill="black"/>
<path d="M12.4467 60.877C12.4578 60.5452 12.4667 60.2133 12.4712 59.8815C12.4712 59.8296 12.469 59.777 12.4793 59.7259C12.5141 59.5385 12.5993 59.4022 12.8134 59.3793C12.966 59.363 13.1171 59.3111 13.2704 59.3489C13.4356 59.3889 13.603 59.3452 13.7571 59.3274C14.0267 59.2963 14.3327 59.3126 14.6038 59.3296C15.3208 59.3733 16.0416 59.3993 16.7593 59.4563C17.0727 59.4815 17.1141 59.5289 17.123 59.8556C17.1282 60.0304 17.1475 60.2059 17.169 60.38C17.1971 60.5956 17.1949 60.6452 17.0001 60.7119C16.8771 60.7541 16.929 60.7963 16.9512 60.857C17.0475 61.1163 17.203 61.3482 17.2875 61.617C17.363 61.8578 17.3801 62.1015 17.4156 62.3444C17.463 62.6793 17.4356 63.0185 17.4149 63.3548C17.3645 64.1044 17.1053 64.7637 16.5704 65.3C16.4764 65.3941 16.3697 65.4919 16.2497 65.54C15.886 65.6874 15.5912 65.96 15.2201 66.0919C14.8534 66.2222 14.4927 66.3563 14.0904 66.3867C13.7519 66.4119 13.3956 66.4578 13.0616 66.4682C12.5764 66.4822 12.069 66.4067 11.589 66.337C11.1816 66.2793 10.7741 66.2311 10.3697 66.1489C10.1178 66.0985 9.86303 66.0637 9.61044 66.0089C9.32155 65.9459 9.0534 65.8326 8.82155 65.6719C8.24822 65.2763 7.73711 64.8156 7.47415 64.1385C7.17933 63.3785 7.10674 62.6082 7.31414 61.8111C7.37933 61.5585 7.45563 61.3267 7.59414 61.1007C7.72081 60.8933 7.82526 60.6711 7.95044 60.4593C8.23637 59.98 8.72452 59.8289 9.17933 59.6422C9.41044 59.5474 9.64526 59.4296 9.91118 59.4037C10.0667 59.3882 10.2208 59.3807 10.3734 59.3919C10.5504 59.4052 10.6549 59.5193 10.6704 59.697C10.6934 59.9585 10.6253 60.2104 10.563 60.46C10.5238 60.6156 10.3801 60.6696 10.2341 60.7119C9.986 60.7844 9.74377 60.8793 9.53266 61.0296C9.19118 61.2726 8.92896 61.5859 8.766 61.9763C8.73414 62.0526 8.70081 62.1289 8.66155 62.2007C8.47785 62.5467 8.51192 62.8985 8.6334 63.2504C8.68377 63.397 8.76155 63.5356 8.80229 63.6837C8.86452 63.917 9.03192 64.0696 9.18303 64.237C9.47859 64.5644 9.87711 64.6719 10.286 64.7378C11.3682 64.9096 12.4364 64.9444 13.529 64.9778C13.8208 64.9867 14.1334 64.9852 14.4067 64.8963C14.7749 64.7763 15.1638 64.66 15.4682 64.4059C15.7341 64.183 15.9001 63.8696 15.9601 63.5304C16.0134 63.2326 16.1045 62.9356 16.066 62.6237C16.0008 62.0844 15.8808 61.5607 15.4949 61.1585C15.3186 60.9748 15.1067 60.7748 14.7964 60.8482C14.3771 60.7482 13.9564 60.8837 13.5371 60.8356C13.4453 60.8244 13.4616 60.8785 13.4704 60.9252C13.5401 61.2607 13.5208 61.5956 13.4534 61.9259C13.3897 62.237 13.0053 62.4296 12.7038 62.3244C12.4927 62.2511 12.4119 62.1059 12.4178 61.8356C12.4253 61.5156 12.4356 61.1956 12.446 60.8763L12.4467 60.877Z" fill="black"/>
<path d="M8.58013 51.6585C8.72679 51.0407 8.78457 50.34 9.05494 49.7637C9.1542 49.5489 9.26901 49.343 9.32531 49.1096C9.34383 49.0326 9.39642 48.9615 9.44309 48.8956C9.81346 48.3778 10.3068 48.0415 10.9298 47.8963C11.3942 47.7889 11.8557 47.6756 12.3342 47.6415C12.7986 47.6089 13.252 47.66 13.7112 47.7C14.1261 47.737 14.5223 47.9444 14.9201 48.0556C15.4779 48.2111 16.0179 48.3785 16.5283 48.6585C16.8127 48.8156 17.1023 48.9659 17.3986 49.0963C17.7209 49.2378 17.8979 49.5207 18.1127 49.7659C18.3853 50.0763 18.5475 50.457 18.6075 50.8504C18.6505 51.1407 18.6727 51.4437 18.6816 51.7437C18.6898 52.0096 18.6401 52.2667 18.5816 52.5081C18.4816 52.9215 18.4549 53.3541 18.2786 53.7481C18.2579 53.7956 18.2423 53.8467 18.2149 53.8889C17.8912 54.3896 17.5601 54.8859 17.1038 55.2785C16.7772 55.5607 16.4216 55.7807 15.9668 55.7911C15.8053 55.7948 15.6423 55.8281 15.4823 55.8585C15.1527 55.92 14.8209 55.8815 14.5001 55.8363C13.809 55.7378 13.1016 55.72 12.4357 55.4748C12.1231 55.4815 11.8438 55.3259 11.5386 55.2874C11.3831 55.2674 11.2468 55.203 11.1098 55.1185C10.8557 54.9622 10.5823 54.837 10.3238 54.6896C10.0579 54.5385 9.80087 54.3689 9.56827 54.157C9.26753 53.883 9.09864 53.5422 8.91124 53.197C8.66013 52.7341 8.45346 52.1941 8.58161 51.6563L8.58013 51.6585ZM17.2098 52.7859C17.2831 52.4778 17.2979 52.1593 17.3009 51.8437C17.3046 51.4956 17.2594 51.0311 17.0646 50.7363C16.6838 50.1593 16.2298 49.8593 15.5646 49.6911C15.2816 49.62 15.0305 49.4659 14.7549 49.3741C14.4801 49.2822 14.1905 49.2541 13.9083 49.2007C13.609 49.143 13.2986 49.1178 12.9898 49.1022C12.3653 49.0711 11.749 49.0726 11.1712 49.3459C10.7001 49.5689 10.3009 49.8615 10.2631 50.4489C10.2579 50.5185 10.2283 50.5911 10.1949 50.6541C10.1438 50.7481 10.1401 50.8459 10.1253 50.9489C10.0868 51.2163 10.132 51.4867 10.0949 51.7481C10.0261 52.2356 10.2601 52.6267 10.4572 53.0289C10.5098 53.1333 10.6135 53.2244 10.7135 53.2926C10.9846 53.477 11.2972 53.597 11.5431 53.823C11.5801 53.857 11.6283 53.8844 11.6779 53.8993C11.9898 53.9993 12.3038 54.0918 12.6164 54.1926C13.0394 54.3281 13.4801 54.3874 13.9149 54.4593C14.3572 54.5333 14.7949 54.6748 15.2564 54.6185C15.6446 54.5711 16.0557 54.5667 16.3498 54.2681C16.7609 53.8511 17.0727 53.3659 17.2112 52.7852L17.2098 52.7859Z" fill="black"/>
<path d="M20.0379 43.5689C20.2786 43.0096 20.5853 42.483 20.8549 41.9378C21.0001 41.6459 21.189 41.3793 21.2868 41.0593C21.3298 40.9178 21.4572 40.7911 21.5409 40.6511C21.609 40.5363 21.669 40.4178 21.7283 40.2978C21.8283 40.0933 21.9157 40.0696 22.1216 40.1726C22.2786 40.2511 22.4364 40.3311 22.6016 40.3904C22.9127 40.5022 22.9986 40.6985 22.8609 41.0007C22.8223 41.0852 22.7616 41.1548 22.7157 41.2341C22.4846 41.6348 22.3468 42.083 22.0801 42.4644C22.0268 42.5407 21.9801 42.6237 21.949 42.7111C21.7786 43.2037 21.5142 43.6533 21.2957 44.1244C21.2298 44.2667 21.0905 44.3667 21.0549 44.5215C20.9505 44.98 20.6349 45.3407 20.4823 45.783C20.3683 46.1141 20.109 46.1719 19.8609 46.0341C19.6179 45.8985 19.3498 45.8126 19.1135 45.6585C19.0223 45.5993 18.8972 45.5919 18.7994 45.5407C18.4194 45.3437 18.0201 45.1904 17.6416 44.9889C17.3838 44.8519 17.092 44.76 16.8186 44.6378C16.4979 44.4933 16.1838 44.3267 15.8557 44.1985C15.1542 43.9244 14.486 43.5756 13.8001 43.2682C13.1972 42.9985 12.5823 42.7437 12.0046 42.4163C11.9186 42.3674 11.8194 42.3422 11.7275 42.303C11.6031 42.2482 11.5475 42.137 11.5949 42.023C11.6601 41.8659 11.6698 41.6948 11.7623 41.5415C11.909 41.2985 12.0957 41.0785 12.1972 40.8059C12.2446 40.68 12.3675 40.6615 12.5194 40.7296C12.8475 40.8763 13.1772 41.0237 13.5001 41.183C13.7038 41.2837 13.929 41.3363 14.1238 41.4422C14.4016 41.5926 14.7164 41.677 14.9653 41.8778C15.0668 41.96 15.1809 41.9867 15.2949 42.0319C15.5512 42.1333 15.806 42.2482 16.046 42.3852C16.3312 42.5482 16.6083 42.7207 16.9216 42.8296C16.9994 42.857 17.0816 42.8844 17.1483 42.9311C17.3586 43.0785 17.6098 43.1422 17.829 43.2689C18.1749 43.4674 18.5735 43.5459 18.9075 43.7793C19.112 43.9215 19.3786 43.9644 19.5972 44.1007C19.672 44.1482 19.7823 44.1689 19.8335 44.0244C19.889 43.8689 19.969 43.7207 20.0379 43.5704V43.5689Z" fill="black"/>
<path d="M23.7659 29.177C23.9067 29.2978 24.0726 29.3837 24.2311 29.4822C24.5859 29.703 24.9163 29.9585 25.2252 30.2407C25.6104 30.5919 25.9719 30.9652 26.2748 31.3911C26.5059 31.7178 26.7511 32.037 26.9534 32.3807C27.0282 32.5089 27.1045 32.6689 27.0904 32.84C27.0874 32.8696 27.0911 32.9037 27.1 32.9326C27.2793 33.4978 27.0741 34.0148 26.8867 34.5296C26.7637 34.8667 26.5874 35.1926 26.3652 35.4622C26.1356 35.7407 25.9845 36.0711 25.7282 36.3281C25.6296 36.4267 25.5867 36.5807 25.4889 36.68C25.2541 36.9193 25.0808 37.2059 24.8763 37.4659C24.7652 37.6081 24.6696 37.7741 24.5852 37.9363C24.5037 38.0941 24.4015 38.2244 24.2771 38.3481C24.0978 38.5267 23.9311 38.5481 23.7104 38.4178C23.4963 38.2919 23.3385 38.1007 23.1408 37.9585C22.8037 37.7163 22.4778 37.4585 22.1215 37.2444C21.8015 37.0533 21.5504 36.7444 21.2548 36.5096C20.9437 36.263 20.6119 36.0267 20.2882 35.7956C20.1415 35.6904 19.9815 35.6119 19.8393 35.5015C19.7741 35.4511 19.6993 35.4119 19.6356 35.3607C19.3208 35.1059 18.9867 34.8778 18.663 34.6363C18.4326 34.4644 18.2119 34.2785 18.0022 34.0837C17.9259 34.0133 17.8496 33.9585 17.76 33.9059C17.6015 33.8141 17.4474 33.7059 17.3185 33.577C17.1363 33.3948 16.8763 33.32 16.7245 33.1007C16.5934 32.9126 16.5371 32.7326 16.6193 32.497C16.7593 32.0978 17.0319 31.7867 17.2637 31.4504C17.4556 31.1719 17.6548 30.8993 17.8422 30.6163C17.9645 30.4311 18.1045 30.243 18.2741 30.0948C18.4334 29.9556 18.5452 29.783 18.6785 29.6244C18.9282 29.3244 19.1734 29.0185 19.5067 28.8C19.8904 28.5474 20.2793 28.3133 20.7682 28.3674C20.8978 28.3815 21.0734 28.3096 21.2148 28.3156C21.3741 28.3222 21.5326 28.3511 21.6926 28.3496C22.0119 28.3459 22.46 28.463 22.7459 28.6037C23.0948 28.7748 23.4815 28.8911 23.7689 29.1778H23.7682L23.7659 29.177ZM24.6696 35.5859C24.7489 35.477 24.8289 35.3689 24.9089 35.2593C25.0541 35.057 25.2526 34.8733 25.3282 34.6474C25.3941 34.4481 25.4822 34.2756 25.5889 34.1037C25.9585 33.5111 25.8689 33.0519 25.4548 32.5148C25.2037 32.1911 24.9363 31.8756 24.6378 31.5874C24.323 31.2815 23.9134 31.0148 23.5356 30.7933C23.1371 30.5585 22.7437 30.3156 22.3459 30.0807C22.2674 30.0341 22.183 29.9941 22.0948 29.9689C21.8215 29.8896 21.5482 29.8133 21.2726 29.7415C21.0326 29.6793 20.8156 29.7244 20.6126 29.8015C20.2289 29.9452 19.9437 30.2422 19.6674 30.5348C19.5334 30.6756 19.4022 30.8222 19.2837 30.9726C19.1067 31.1978 18.8985 31.3948 18.7185 31.617C18.5474 31.8281 18.463 32.0874 18.283 32.2874C18.2222 32.3563 18.2504 32.4096 18.3185 32.4674C18.5852 32.6904 18.84 32.9274 19.1385 33.1119C19.3371 33.2341 19.5215 33.3785 19.723 33.4978C19.8119 33.5496 19.8985 33.6133 19.9674 33.6889C20.1437 33.883 20.36 34.0244 20.5667 34.1785C21.2445 34.6867 21.9452 35.1644 22.6193 35.677C23.0119 35.9763 23.4437 36.2148 23.843 36.5022C23.92 36.5578 23.9726 36.5333 24.0237 36.463C24.2363 36.1696 24.4511 35.877 24.6696 35.5874V35.5859Z" fill="black"/>
<path d="M29.7475 27.5444C30.0393 27.8659 30.3297 28.1896 30.6238 28.5089C30.7312 28.6252 30.803 28.6356 30.8764 28.5319C31.1816 28.1037 31.6245 27.8193 31.9927 27.4563C32.2801 27.1726 32.6178 26.9526 32.9178 26.6837C33.0556 26.5607 33.1549 26.4067 33.2897 26.277C33.4467 26.1244 33.623 25.9919 33.783 25.8422C34.0045 25.6356 34.2008 25.657 34.4304 25.8652C34.4764 25.9067 34.4956 25.9615 34.5453 26.003C34.7764 26.1911 34.7904 26.2711 34.6416 26.5244C34.5838 26.623 34.5082 26.7104 34.4186 26.7881C34.0741 27.0889 33.7601 27.4237 33.4141 27.7193C33.206 27.8985 33.0312 28.1133 32.8119 28.2815C32.529 28.4985 32.2934 28.7459 32.0319 28.9844C31.7127 29.2741 31.4245 29.5978 31.0986 29.8822C30.9675 29.997 30.883 30.1556 30.7149 30.2356C30.5127 30.3318 30.4178 30.317 30.2586 30.143C30.1416 30.0133 30.0216 29.8852 29.8904 29.7711C29.6119 29.5252 29.389 29.2289 29.1216 28.9704C28.7134 28.5756 28.3719 28.1104 27.9897 27.6874C27.3364 26.963 26.6808 26.2415 26.0141 25.5296C25.7141 25.2089 25.3949 24.8911 25.1593 24.5096C25.0053 24.2615 24.7623 24.0918 24.5927 23.8578C24.586 23.8489 24.5778 23.843 24.5697 23.8356C24.2156 23.4926 24.2016 23.3763 24.5438 23.0311C25.5786 21.9874 26.6882 21.0111 27.8045 20.057C27.9993 19.8911 28.2001 19.7304 28.409 19.5837C28.5971 19.4519 28.5882 19.4778 28.7571 19.6348C28.9393 19.8037 29.1045 19.9867 29.2741 20.1659C29.4349 20.3363 29.4386 20.3652 29.2601 20.5119C29.0134 20.7148 28.8378 20.9852 28.5875 21.1874C28.0823 21.5963 27.5971 22.0319 27.1038 22.4563C26.7778 22.7363 26.4504 23.0148 26.123 23.2919C26.0334 23.3674 26.0556 23.4007 26.1178 23.5067C26.366 23.9274 26.7978 24.1652 27.0845 24.5437C27.306 24.837 27.5527 25.1111 27.789 25.3933C27.823 25.4348 27.8408 25.4556 27.906 25.4052C28.003 25.3296 28.1067 25.2615 28.1978 25.1763C28.5067 24.8867 28.8741 24.6556 29.1534 24.3415C29.3282 24.1444 29.5578 23.9993 29.7386 23.8067C29.8882 23.6467 30.0993 23.603 30.2727 23.7763C30.4193 23.923 30.5601 24.0763 30.689 24.2385C30.8045 24.383 30.7956 24.4926 30.6749 24.6274C30.4327 24.8933 30.1564 25.1222 29.8697 25.337C29.6304 25.5148 29.3978 25.6933 29.2149 25.9318C29.1149 26.0615 28.9541 26.1296 28.8549 26.2659C28.7416 26.423 28.7282 26.4259 28.8638 26.5815C29.1512 26.9089 29.4482 27.2274 29.7467 27.5444H29.7475Z" fill="black"/>
<path d="M39.2637 17.183C39.1474 16.9933 39.0348 16.803 38.9192 16.6133C38.7896 16.3993 38.6548 16.1874 38.5311 15.9696C38.2822 15.5319 37.9815 15.1252 37.7563 14.6733C37.6659 14.4919 37.5681 14.3007 37.3918 14.1741C37.36 14.1511 37.3444 14.1067 37.3215 14.0726C37.1015 13.743 37.1326 13.577 37.4829 13.4104C37.6341 13.3378 37.7755 13.2556 37.9178 13.1711C38.097 13.0644 38.2652 13.0815 38.3681 13.2526C38.6555 13.7259 38.9896 14.1667 39.2592 14.6526C39.4326 14.9674 39.6474 15.2585 39.8118 15.5793C39.9718 15.8919 40.1533 16.2015 40.3052 16.5148C40.4607 16.8326 40.6022 17.157 40.7911 17.457C41.0437 17.857 41.2526 18.2926 41.5378 18.6681C41.8015 19.0163 42.0252 19.3881 42.2437 19.757C42.4726 20.1452 42.7652 20.4896 42.9741 20.8881C43.0474 21.0267 42.9941 21.2763 42.8326 21.377C42.4266 21.6319 42.0178 21.8807 41.5992 22.1119C41.4274 22.2074 41.257 22.1104 41.1081 22.0111C40.7733 21.7859 40.4511 21.5437 40.1081 21.3348C39.7829 21.1363 39.4696 20.9178 39.1267 20.743C38.8741 20.6148 38.6444 20.4296 38.3985 20.2785C38.0918 20.0904 37.7852 19.9044 37.4615 19.7452C37.2763 19.6541 37.1074 19.5319 36.9237 19.437C36.6318 19.2874 36.3407 19.1289 36.0652 18.9593C35.7163 18.7437 35.3111 18.6119 35.02 18.3044C34.9926 18.2763 34.9518 18.2533 34.9155 18.283C34.9074 18.2904 34.9304 18.3393 34.9437 18.3674C35.0978 18.6807 35.2444 18.9985 35.3822 19.32C35.5052 19.6081 35.7266 19.8563 35.8348 20.1474C35.9259 20.3948 36.1074 20.5874 36.2489 20.8052C36.3748 21 36.4481 21.2207 36.5785 21.4133C36.7378 21.6489 36.9 21.8807 37.0548 22.1193C37.4452 22.723 37.8044 23.3459 38.1355 23.9793C38.217 24.1333 38.1578 24.3637 37.9985 24.4281C37.74 24.5326 37.5215 24.7178 37.2415 24.7778C37.037 24.8222 36.96 24.8074 36.8437 24.6407C36.8022 24.5807 36.7511 24.5207 36.7333 24.4541C36.6696 24.2104 36.497 24.0252 36.3755 23.817C36.2304 23.5704 36.0755 23.3281 35.9518 23.0704C35.8037 22.7637 35.5837 22.5037 35.4074 22.2163C35.2896 22.0237 35.1615 21.84 35.0252 21.6585C34.9044 21.4985 34.86 21.2822 34.7466 21.1074C34.5911 20.8681 34.4348 20.6281 34.2748 20.3926C34.2466 20.3496 34.217 20.3126 34.2015 20.26C34.1333 20.0148 33.9889 19.8074 33.8437 19.6081C33.7333 19.4556 33.6363 19.2948 33.5859 19.1267C33.5044 18.8615 33.3481 18.6444 33.2059 18.4237C33.0444 18.1726 32.9126 17.9074 32.7866 17.6422C32.7066 17.4733 32.6348 17.3007 32.5133 17.1637C32.4333 17.0741 32.4222 16.963 32.3578 16.8696C32.2985 16.7852 32.3244 16.6681 32.3963 16.5793C32.4874 16.4674 32.5733 16.3533 32.7066 16.2807C32.88 16.1867 33.0422 16.08 33.1637 15.9156C33.2533 15.7941 33.3785 15.7963 33.5222 15.8311C33.8215 15.9022 34.0592 16.0933 34.3318 16.2119C34.8222 16.4244 35.2237 16.7785 35.6859 17.037C35.9274 17.1726 36.1815 17.2911 36.4096 17.4467C36.6896 17.6385 37.0044 17.7659 37.2778 17.9719C37.4985 18.1378 37.7422 18.28 37.9918 18.3985C38.2763 18.5326 38.5296 18.7104 38.7866 18.8837C39.24 19.1896 39.7222 19.4415 40.2148 19.6748C40.2711 19.7015 40.3326 19.7207 40.3926 19.7289C40.5089 19.7444 40.6489 19.737 40.7044 19.6393C40.7785 19.5081 40.557 19.3244 40.497 19.2259C40.2052 18.7533 39.9666 18.2548 39.6518 17.7933C39.5155 17.5941 39.3881 17.3889 39.2615 17.1822L39.2637 17.183Z" fill="black"/>
<path d="M48.4416 8.84593C48.5831 8.84593 48.7171 8.74889 48.8764 8.74296C49.0653 8.73704 49.1712 8.77407 49.2068 8.9437C49.3008 9.38889 49.5001 9.80518 49.5727 10.2533C49.6838 10.94 49.8468 11.6141 49.9957 12.2911C50.0231 12.4185 50.0394 12.5933 50.1253 12.6519C50.3216 12.7859 50.7364 12.5807 50.9245 12.5207C51.6883 12.2733 52.449 12.0933 53.2283 11.9126C53.5394 11.8748 53.8231 11.7541 54.1238 11.6881C54.306 11.6481 54.3008 11.5822 54.2808 11.4C54.2579 11.183 54.1675 10.9852 54.1179 10.7748C54.0697 10.5741 54.0631 10.3696 54.0008 10.1719C53.9364 9.96519 53.8823 9.76667 53.8557 9.54963C53.8038 9.12963 53.6268 8.74667 53.5757 8.32444C53.566 8.24296 53.5431 8.16518 53.5253 8.08815C53.4683 7.84296 53.5438 7.67555 53.769 7.61259C53.9483 7.56222 54.129 7.53333 54.3045 7.45852C54.4645 7.38963 54.6497 7.44815 54.8194 7.50667C54.9431 7.54963 54.9771 7.65926 55.0312 7.75926C55.0897 7.86815 55.1653 7.97259 55.1749 8.09926C55.206 8.48148 55.3571 8.83852 55.4201 9.21259C55.5905 10.2244 55.8364 11.2215 56.0623 12.2207C56.1334 12.5385 56.2386 12.8489 56.3283 13.1607C56.4327 13.5237 56.5386 13.8926 56.566 14.2741C56.5697 14.3148 56.5594 14.3622 56.5764 14.3963C56.7379 14.6956 56.6994 15.037 56.7831 15.3519C56.8697 15.6793 56.9586 16.0059 57.0105 16.3422C57.0564 16.6385 57.0401 16.6637 56.7779 16.8022C56.5327 16.9311 56.2638 16.9637 56.0023 17.0274C55.8053 17.0763 55.6875 16.9933 55.6371 16.7941C55.5616 16.4963 55.4616 16.2052 55.3764 15.9111C55.2616 15.5193 55.1779 15.1163 55.1157 14.7126C55.1001 14.6059 55.052 14.5222 55.026 14.4252C54.9157 13.9867 54.849 13.5356 54.6705 13.1156C54.6505 13.0689 54.6379 13.0141 54.6408 12.9637C54.6446 12.8941 54.6201 12.8711 54.5557 12.8837C54.3342 12.9304 54.1149 12.98 53.8927 13.0252C53.5823 13.0874 53.3001 13.2496 52.972 13.257C52.8031 13.2615 52.6305 13.3252 52.4697 13.3874C52.0734 13.54 51.6468 13.5867 51.252 13.7356C51.0083 13.8267 50.7586 13.8785 50.509 13.9444C50.3868 13.977 50.346 14.0578 50.3957 14.1778C50.509 14.4504 50.5401 14.7341 50.5705 15.0244C50.5986 15.2993 50.6668 15.5778 50.7631 15.837C50.9008 16.2067 50.9653 16.5933 51.0757 16.9689C51.1497 17.223 51.2008 17.4815 51.3016 17.7289C51.4208 18.0222 51.2927 18.2778 50.9868 18.3519C50.7401 18.4111 50.4846 18.443 50.232 18.4674C50.1186 18.4785 50.009 18.4319 49.9594 18.3044C49.9179 18.1993 49.8475 18.0993 49.8275 17.9896C49.7771 17.7067 49.6668 17.4407 49.6164 17.1556C49.5512 16.7867 49.4186 16.4304 49.3371 16.0637C49.2942 15.8652 49.2749 15.6622 49.2046 15.4704C49.1001 15.1933 49.1053 14.8904 48.989 14.6163C48.946 14.5141 48.946 14.3933 48.9208 14.2822C48.8357 13.8978 48.7668 13.5067 48.6512 13.1304C48.6045 12.9756 48.5638 12.8141 48.5349 12.6615C48.4579 12.2467 48.3075 11.8489 48.2757 11.4237C48.2631 11.2548 48.1705 11.0926 48.129 10.9244C48.009 10.4407 47.8979 9.95556 47.7831 9.47111C47.6986 9.1163 47.7705 9 48.1231 8.91778C48.2245 8.89481 48.3253 8.87185 48.4423 8.84444V8.84667L48.4416 8.84593Z" fill="black"/>
<path d="M62.8696 6.69704C63.5044 6.69704 64.2 6.59333 64.8229 6.72296C65.0548 6.77037 65.2815 6.83481 65.5215 6.8363C65.6 6.83704 65.6822 6.87037 65.7578 6.90148C66.3459 7.1437 66.7874 7.54667 67.0718 8.11852C67.2829 8.54593 67.4992 8.96741 67.6422 9.42667C67.7807 9.87037 67.8363 10.3237 67.9015 10.7793C67.9607 11.1911 67.8503 11.6237 67.8341 12.0378C67.8111 12.6163 67.7718 13.1793 67.617 13.7407C67.5304 14.0533 67.4496 14.3696 67.3911 14.6889C67.3274 15.0333 67.0933 15.2719 66.9037 15.5378C66.6644 15.8741 66.3326 16.12 65.9622 16.2681C65.6903 16.377 65.4 16.4674 65.1103 16.5452C64.8533 16.6141 64.5918 16.6252 64.3429 16.6237C63.9192 16.6207 63.4911 16.6948 63.0674 16.6141C63.0163 16.6044 62.9629 16.6007 62.9148 16.5844C62.3533 16.3852 61.7955 16.177 61.3081 15.823C60.9592 15.5689 60.6622 15.2741 60.5481 14.8341C60.5081 14.677 60.437 14.5267 60.3711 14.3778C60.2355 14.0711 60.1963 13.7393 60.1666 13.417C60.1037 12.7222 59.9585 12.0296 60.0429 11.3252C59.9644 11.0222 60.0526 10.7148 60.0185 10.4104C60.0022 10.2541 60.0333 10.1059 60.0844 9.95481C60.1778 9.67185 60.237 9.3763 60.3207 9.09037C60.4066 8.79704 60.5118 8.50815 60.6644 8.23333C60.8622 7.87778 61.1548 7.63407 61.4474 7.37259C61.84 7.02222 62.3178 6.6963 62.8703 6.69778L62.8696 6.69704ZM64.6948 15.2244C65.0341 15.1474 65.4755 14.997 65.7178 14.74C66.1911 14.237 66.3792 13.7259 66.3896 13.04C66.3933 12.7481 66.4859 12.4689 66.5118 12.18C66.5378 11.8911 66.4985 11.603 66.4859 11.3163C66.4733 11.0126 66.4259 10.7044 66.3696 10.4C66.2578 9.78593 66.1141 9.18593 65.7148 8.68667C65.3896 8.28 65.0133 7.95926 64.4318 8.05704C64.3637 8.06889 64.2866 8.0563 64.2178 8.03778C64.1148 8.00963 64.0185 8.02815 63.9148 8.03778C63.6459 8.06222 63.3933 8.16889 63.1303 8.19185C62.64 8.2363 62.3133 8.55407 61.9681 8.83778C61.8785 8.91259 61.8141 9.03481 61.7711 9.14815C61.6533 9.45481 61.6089 9.78593 61.4444 10.077C61.42 10.1215 61.4052 10.1748 61.4015 10.2252C61.3755 10.5519 61.3585 10.8793 61.3326 11.2059C61.297 11.6481 61.3422 12.0911 61.3718 12.5304C61.4015 12.977 61.3637 13.4348 61.5244 13.8719C61.66 14.24 61.7592 14.6378 62.117 14.8556C62.617 15.16 63.1607 15.3519 63.7578 15.3533C64.0741 15.3533 64.3874 15.2948 64.6948 15.2252V15.2244Z" fill="black"/>
<path d="M79.2601 9.88222C79.092 10.6496 78.9246 11.417 78.7564 12.1852C78.6513 12.6696 78.5705 13.16 78.4313 13.6341C78.2838 14.1393 78.1868 14.657 78.0394 15.1607C77.889 15.6763 77.6853 16.1763 77.3624 16.6156C77.1513 16.9022 76.8631 17.1074 76.5994 17.3385C76.3676 17.3689 76.1876 17.5437 75.9335 17.5407C75.7105 17.537 75.4957 17.6585 75.2616 17.6385C75.0268 17.6178 74.7913 17.6385 74.5564 17.623C73.8387 17.577 73.235 17.2822 72.589 17.0044C72.1705 16.8237 71.8431 16.4956 71.6557 16.0607C71.6313 16.0037 71.6061 15.9489 71.5735 15.8948C71.2453 15.3474 71.2053 14.7593 71.2727 14.1363C71.3098 13.7874 71.3868 13.4467 71.4505 13.1059C71.4816 12.9363 71.475 12.7593 71.5083 12.5904C71.5438 12.4096 71.6364 12.2489 71.669 12.0667C71.7076 11.8548 71.7431 11.643 71.789 11.4319C71.8824 11.0059 71.9972 10.5852 72.1127 10.1644C72.2639 9.61407 72.3735 9.05333 72.5372 8.50519C72.6098 8.26444 72.6387 8 72.6809 7.74519C72.6935 7.6637 72.709 7.58074 72.7409 7.50444C72.7853 7.39704 72.9142 7.32148 73.0142 7.35259C73.2787 7.43333 73.5616 7.4363 73.812 7.58C73.9927 7.68519 74.0194 7.76667 74.0098 7.99407C73.9764 8.80222 73.7179 9.62 73.5476 10.4081C73.5142 10.5578 73.452 10.7015 73.4253 10.8533C73.3416 11.3237 73.2764 11.797 73.1876 12.2659C73.1179 12.6378 73.0187 13.0052 72.9387 13.3756C72.8661 13.7185 72.7735 14.057 72.7498 14.4111C72.735 14.6481 72.735 14.8844 72.7705 15.1156C72.8016 15.3222 72.8676 15.5081 73.0476 15.6733C73.3439 15.9452 73.6676 16.1037 74.0476 16.22C74.3735 16.32 74.6964 16.3704 75.0305 16.4067C75.5638 16.4659 76.2861 16.063 76.5364 15.5422C76.7187 15.1615 76.8764 14.7733 76.9068 14.3393C76.9238 14.1089 77.0209 13.8867 77.069 13.6578C77.1505 13.2763 77.2609 12.9015 77.3483 12.5222C77.4172 12.223 77.4624 11.9133 77.5335 11.6104C77.6053 11.3022 77.7083 11.0022 77.7846 10.6948C77.8601 10.3844 77.9335 10.0719 77.9801 9.7563C78.0142 9.52741 78.0683 9.30074 78.1024 9.07037C78.155 8.70667 78.3676 8.4363 78.8446 8.55185C78.9053 8.56667 78.9653 8.58222 79.0283 8.59037C79.3253 8.62593 79.3964 8.70074 79.3972 8.99481C79.3972 9.17037 79.3883 9.34444 79.3394 9.51556C79.3038 9.63482 79.2846 9.75852 79.2594 9.88074H79.2601V9.88222Z" fill="black"/>
<path d="M86.317 17.3778C86.1459 17.2667 85.9518 17.2022 85.7577 17.1474C85.5392 17.0859 85.3577 16.963 85.1488 16.8778C84.9007 16.7756 84.66 16.66 84.3985 16.5933C84.3296 16.5756 84.26 16.543 84.2037 16.5007C83.9614 16.3185 83.6666 16.26 83.397 16.1407C83.3096 16.1022 83.2733 16.14 83.2274 16.2126C83.1007 16.4178 83.0089 16.6489 82.9289 16.8756C82.7874 17.2748 82.5851 17.6489 82.4429 18.0474C82.3429 18.3289 82.1874 18.5859 82.0748 18.863C81.9666 19.1244 81.9251 19.3889 81.7837 19.6363C81.6748 19.8267 81.5022 19.8815 81.3089 19.7867C81.1163 19.6919 80.9266 19.5889 80.7407 19.4815C80.5118 19.3489 80.4896 19.283 80.5133 19.0363C80.5259 18.9067 80.5755 18.7956 80.6296 18.6852C80.9392 18.0533 81.1992 17.3978 81.5022 16.763C81.7059 16.3356 81.9066 15.9052 82.1037 15.4748C82.2866 15.0748 82.5251 14.677 82.6814 14.2674C82.9 13.6933 83.0992 13.0867 83.3903 12.5385C83.5896 12.1637 83.7488 11.7681 83.9251 11.3807C83.9681 11.2874 84.0037 11.1933 84.0185 11.0867C84.0629 10.7615 84.4229 10.5193 84.7333 10.7578C85.0748 10.8089 85.3525 11.0326 85.6918 11.1037C85.9718 11.1622 86.1866 11.3511 86.4429 11.4704C86.6044 11.5444 86.7607 11.6511 86.9266 11.7126C87.3622 11.8733 87.7726 12.0904 88.1777 12.3074C88.5296 12.4956 88.8955 12.6459 89.2518 12.8185C89.3955 12.8881 89.5422 13.0007 89.6303 13.1311C90.0237 13.7081 90.3488 14.3133 90.3429 15.0444C90.3392 15.4311 90.2681 15.8015 90.0888 16.1407C90.0111 16.2904 89.8763 16.4133 89.7614 16.5422C89.6926 16.6193 89.6118 16.6844 89.537 16.7548C89.2496 17.0267 88.8948 17.1896 88.5474 17.3652C88.5007 17.3881 88.4503 17.4037 88.4029 17.4222C88.0948 17.5393 88.0903 17.5415 88.2614 17.8348C88.317 17.9289 88.354 18.0252 88.3459 18.1281C88.3177 18.4733 88.4355 18.803 88.4429 19.1452C88.4518 19.5919 88.3474 20.0281 88.2437 20.4593C88.14 20.8933 88.017 21.323 87.8496 21.737C87.7525 21.9778 87.6155 22.5289 87.2614 22.3874C86.9637 22.2681 86.6703 22.1378 86.3992 21.9674C86.2748 21.8896 86.2622 21.8059 86.2911 21.6489C86.337 21.3941 86.477 21.1756 86.5563 20.9333C86.6814 20.5511 86.8244 20.1756 86.9274 19.7867C87.0274 19.4104 87.094 19.0237 87.1111 18.6378C87.1281 18.2593 86.9629 17.9104 86.754 17.5985C86.6585 17.457 86.4666 17.443 86.3148 17.38H86.3155L86.317 17.3778ZM86.8125 16.3185C87.1666 16.4526 87.5155 16.5304 87.8851 16.3481C88.0985 16.2437 88.3014 16.1363 88.5 16.0037C88.6911 15.877 88.7733 15.7311 88.8326 15.5319C88.88 15.3704 88.8903 15.2059 88.9037 15.0422C88.9548 14.4133 88.634 13.9607 88.1266 13.6696C87.8266 13.4985 87.52 13.3385 87.2044 13.1963C86.7088 12.9733 86.2392 12.737 85.7548 12.497C85.5725 12.4074 85.3755 12.3511 85.1851 12.28C85.094 12.2467 85.0437 12.2696 84.9866 12.3615C84.8333 12.6059 84.7748 12.8881 84.6651 13.1481C84.534 13.4563 84.3822 13.757 84.2533 14.0659C84.1577 14.2941 84.0533 14.5326 83.9088 14.7444C83.8755 14.7948 83.8518 14.8563 83.8407 14.917C83.8237 15.0156 83.8407 15.0889 83.9674 15.1222C84.1163 15.1607 84.2526 15.2444 84.4 15.2956C84.7718 15.4244 85.0925 15.6644 85.4696 15.78C85.9325 15.9215 86.3666 16.1333 86.8118 16.3193L86.8125 16.3185Z" fill="black"/>
<path d="M96.6652 24.6111C96.3222 25.0252 95.9815 25.4415 95.6393 25.8563C95.46 26.0733 95.2659 26.277 95.083 26.4889C94.9067 26.6926 94.7645 26.9237 94.5659 27.1037C94.4074 27.2481 94.2237 27.2444 94.0689 27.0956C93.9141 26.9459 93.7652 26.7904 93.6208 26.6311C93.443 26.4348 93.4437 26.3711 93.5437 26.1393C93.5919 26.0304 93.6637 25.9452 93.7422 25.8637C94.1089 25.4815 94.4333 25.0615 94.7926 24.6741C95.0726 24.3719 95.3319 24.0489 95.6267 23.7578C95.8178 23.5696 95.9778 23.3489 96.1489 23.1407C96.2593 23.0052 96.3896 22.8785 96.5185 22.7748C96.7741 22.5681 96.9948 22.2874 97.1904 22.0252C97.3563 21.8022 97.5719 21.6341 97.7548 21.4281C97.9289 21.2311 98.0645 21.003 98.2533 20.817C98.563 20.5126 98.8415 20.1748 99.1326 19.8519C99.1889 19.7911 99.2348 19.7237 99.2763 19.6511C99.4896 19.2763 99.7326 19.2763 100.077 19.5281C100.258 19.66 100.407 19.8333 100.589 19.963C100.781 20.1 100.959 20.2252 101.13 20.3904C101.614 20.8548 102.089 21.3319 102.593 21.7748C102.802 21.9585 102.965 22.1844 103.176 22.3674C103.421 22.5807 103.691 22.777 103.887 23.0407C104.069 23.2874 104.106 23.5904 104.17 23.8822C104.302 24.4793 104.244 25.0719 103.989 25.6385C103.801 26.0563 103.504 26.3622 103.098 26.5667C103.005 26.6126 102.914 26.6607 102.819 26.6993C102.122 26.9785 101.424 27.0719 100.682 26.8341C100.181 26.6741 99.7133 26.4726 99.3333 26.1222C99.2082 26.0081 99.0489 25.9474 98.9415 25.8089C98.8415 25.6793 98.7067 25.5741 98.5822 25.4652C98.4496 25.3504 98.3156 25.2333 98.1711 25.1363C97.8615 24.9289 97.6252 24.64 97.3511 24.3926C97.1311 24.1956 96.9874 24.2111 96.8022 24.4437C96.757 24.5 96.7148 24.5585 96.6637 24.6111H96.6645H96.6652ZM100.21 21.2548C100.173 21.2207 100.138 21.1822 100.097 21.1526C99.9615 21.0548 99.9304 21.0593 99.7859 21.1807C99.5845 21.3526 99.4519 21.5852 99.2815 21.7844C99.0652 22.0393 98.8304 22.2815 98.6119 22.5348C98.4511 22.7215 98.2815 22.92 98.08 23.0778C98.0252 23.1207 97.98 23.1844 97.9482 23.2481C97.9089 23.3267 97.9126 23.3948 98.0074 23.4563C98.137 23.5407 98.2452 23.6556 98.3682 23.7511C98.7022 24.0104 98.9622 24.3548 99.3111 24.597C99.617 24.8096 99.9 25.0481 100.17 25.303C100.236 25.3659 100.315 25.4096 100.384 25.4681C100.498 25.5652 100.621 25.6689 100.779 25.6985C101.023 25.7444 101.267 25.7889 101.513 25.8296C101.832 25.8815 102.104 25.763 102.331 25.5556C102.622 25.2904 102.752 24.9289 102.827 24.5556C102.888 24.2533 102.798 23.9733 102.661 23.697C102.424 23.2156 101.969 22.9437 101.62 22.5719C101.439 22.38 101.194 22.2422 101.036 22.0363C100.881 21.8363 100.693 21.6785 100.517 21.5059C100.424 21.4148 100.309 21.3444 100.203 21.2644C100.205 21.2615 100.208 21.2578 100.21 21.2548Z" fill="black"/>
<path d="M109.83 29.8304C110.194 30.3504 110.678 30.86 110.929 31.4452C111.023 31.6622 111.101 31.8844 111.237 32.0822C111.282 32.1474 111.302 32.2333 111.319 32.3126C111.459 32.9333 111.382 33.5259 111.076 34.0874C110.848 34.5059 110.626 34.9252 110.332 35.3059C110.049 35.6741 109.708 35.9793 109.373 36.2948C109.071 36.5793 108.651 36.737 108.305 36.9615C107.816 37.2748 107.333 37.5652 106.785 37.7607C106.478 37.8689 106.174 37.9852 105.879 38.12C105.559 38.2659 105.23 38.2096 104.904 38.2074C104.491 38.2052 104.099 38.0733 103.765 37.8556C103.519 37.6956 103.279 37.5096 103.05 37.317C102.845 37.1467 102.687 36.9393 102.545 36.7341C102.303 36.3844 101.997 36.077 101.82 35.683C101.799 35.6356 101.771 35.5904 101.758 35.5407C101.599 34.9667 101.449 34.3904 101.459 33.7881C101.466 33.3563 101.537 32.9437 101.832 32.5978C101.937 32.4741 102.02 32.3311 102.103 32.1911C102.277 31.9044 102.526 31.6815 102.773 31.4726C103.307 31.0222 103.79 30.5052 104.416 30.1711C104.619 29.9333 104.921 29.8281 105.152 29.6267C105.27 29.5237 105.41 29.4637 105.562 29.4185C105.848 29.3333 106.124 29.2126 106.406 29.117C106.696 29.0185 106.994 28.9393 107.306 28.9067C107.711 28.8644 108.078 28.9644 108.46 29.0541C108.973 29.1741 109.514 29.3793 109.829 29.8319L109.83 29.8304ZM103.248 35.523C103.431 35.7837 103.658 36.0059 103.892 36.2185C104.15 36.4526 104.527 36.7267 104.876 36.7778C105.56 36.877 106.086 36.7378 106.654 36.3526C106.894 36.1889 107.176 36.1044 107.428 35.96C107.68 35.8156 107.893 35.6178 108.122 35.443C108.362 35.2578 108.589 35.043 108.805 34.8222C109.244 34.377 109.654 33.9163 109.833 33.3022C109.979 32.803 110.027 32.3096 109.613 31.8911C109.565 31.8415 109.53 31.7704 109.506 31.7037C109.469 31.6022 109.399 31.5348 109.332 31.4556C109.157 31.2496 108.926 31.1037 108.756 30.9015C108.438 30.5267 107.991 30.44 107.559 30.32C107.445 30.2889 107.309 30.3059 107.192 30.3356C106.874 30.4156 106.576 30.5696 106.244 30.6022C106.194 30.6074 106.141 30.6252 106.097 30.6511C105.815 30.8178 105.538 30.9911 105.254 31.157C104.872 31.383 104.534 31.6726 104.192 31.9489C103.843 32.2304 103.445 32.463 103.18 32.8444C102.957 33.1667 102.688 33.4756 102.714 33.8941C102.752 34.4785 102.908 35.0348 103.249 35.5244V35.5222L103.248 35.523Z" fill="black"/>
<path d="M116.094 40.7141C116.334 41.3015 116.695 41.9044 116.812 42.5304C116.855 42.763 116.883 42.9963 116.972 43.2185C117.002 43.2926 117.002 43.38 117.002 43.4622C117.002 44.0985 116.797 44.6593 116.376 45.14C116.062 45.4978 115.754 45.8585 115.383 46.1659C115.026 46.4622 114.628 46.6859 114.231 46.92C113.874 47.1311 113.43 47.1941 113.042 47.3363C112.498 47.5348 111.962 47.7126 111.385 47.783C111.062 47.8215 110.739 47.8674 110.422 47.9348C110.079 48.0074 109.768 47.8807 109.451 47.8067C109.05 47.7141 108.696 47.4993 108.418 47.2133C108.214 47.0037 108.019 46.7704 107.837 46.5311C107.676 46.32 107.566 46.0822 107.473 45.8519C107.314 45.4578 107.083 45.0904 106.996 44.6681C106.985 44.617 106.968 44.5667 106.966 44.5156C106.936 43.9207 106.917 43.3259 107.059 42.74C107.161 42.3207 107.321 41.9333 107.684 41.6607C107.814 41.5637 107.926 41.4415 108.039 41.3237C108.271 41.0815 108.562 40.9193 108.85 40.7689C109.468 40.4467 110.054 40.0489 110.737 39.86C110.988 39.6718 111.305 39.6356 111.574 39.4896C111.713 39.4148 111.862 39.3874 112.021 39.3763C112.319 39.3556 112.614 39.2978 112.91 39.2674C113.214 39.2348 113.52 39.2222 113.834 39.2593C114.237 39.3059 114.574 39.4844 114.927 39.6556C115.401 39.8844 115.883 40.203 116.093 40.7148L116.094 40.7141ZM108.426 44.8267C108.546 45.12 108.719 45.3867 108.902 45.6452C109.101 45.9296 109.408 46.2807 109.739 46.4067C110.384 46.6533 110.928 46.6326 111.566 46.3815C111.837 46.2741 112.131 46.2533 112.408 46.1674C112.685 46.0822 112.936 45.9356 113.197 45.8148C113.474 45.6874 113.741 45.5274 114.001 45.3593C114.526 45.0215 115.027 44.6607 115.336 44.1022C115.589 43.6467 115.742 43.1763 115.431 42.677C115.394 42.6178 115.376 42.5415 115.368 42.4711C115.354 42.3637 115.299 42.283 115.253 42.1911C115.127 41.9511 114.933 41.7585 114.811 41.5244C114.583 41.0889 114.166 40.9067 113.771 40.6956C113.668 40.6407 113.53 40.6274 113.409 40.6304C113.081 40.6385 112.757 40.723 112.425 40.6822C112.376 40.6763 112.321 40.6822 112.273 40.6978C111.961 40.7993 111.652 40.9067 111.339 41.0074C110.916 41.1437 110.524 41.3526 110.128 41.5474C109.726 41.7452 109.288 41.8844 108.945 42.1993C108.657 42.4644 108.327 42.7074 108.262 43.1215C108.171 43.7 108.199 44.2763 108.425 44.8281L108.426 44.8267Z" fill="black"/>
<path d="M111.499 53.9526C111.629 54.5482 111.687 55.1548 111.785 55.7548C111.837 56.0763 111.839 56.4022 111.945 56.7207C111.993 56.8607 111.963 57.0385 111.976 57.2C111.987 57.3341 112.007 57.4652 112.029 57.597C112.067 57.8222 112.01 57.8919 111.783 57.9282C111.609 57.9556 111.434 57.9822 111.264 58.0296C110.948 58.12 110.763 58.0104 110.699 57.6844C110.682 57.5933 110.69 57.5015 110.682 57.4104C110.636 56.9504 110.487 56.5052 110.482 56.0393C110.482 55.9467 110.471 55.8511 110.445 55.763C110.297 55.263 110.25 54.743 110.154 54.2341C110.124 54.08 110.18 53.9178 110.119 53.7704C109.936 53.337 109.983 52.86 109.85 52.4111C109.749 52.0748 109.927 51.877 110.208 51.8459C110.485 51.8148 110.753 51.7281 111.035 51.7156C111.144 51.7111 111.25 51.6444 111.359 51.6289C111.783 51.5682 112.196 51.4615 112.622 51.4044C112.911 51.3659 113.202 51.2704 113.496 51.2111C113.842 51.1415 114.193 51.0941 114.534 51.0081C115.264 50.823 116.011 50.7178 116.747 50.5674C117.393 50.4363 118.042 50.2844 118.702 50.2156C118.801 50.2059 118.897 50.1681 118.994 50.1467C119.127 50.1185 119.237 50.1763 119.264 50.2963C119.304 50.4622 119.396 50.6074 119.41 50.7852C119.432 51.0681 119.407 51.3556 119.484 51.6363C119.519 51.7667 119.43 51.8526 119.267 51.8859C118.913 51.9578 118.559 52.0296 118.205 52.0882C117.982 52.1244 117.767 52.2119 117.547 52.2393C117.233 52.2785 116.928 52.3933 116.61 52.3748C116.479 52.3674 116.37 52.4119 116.25 52.4415C115.983 52.5082 115.71 52.563 115.435 52.5911C115.109 52.6252 114.782 52.6459 114.465 52.7393C114.385 52.763 114.303 52.7882 114.222 52.7889C113.964 52.7919 113.724 52.8859 113.47 52.9111C113.074 52.9504 112.705 53.1178 112.296 53.123C112.048 53.1267 111.807 53.2467 111.549 53.263C111.46 53.2682 111.358 53.3156 111.402 53.4622C111.447 53.6215 111.467 53.7882 111.499 53.9511L111.499 53.9526Z" fill="black"/>
<path d="M110.876 63.5126C110.917 62.9356 111.008 62.4304 111.2 61.9474C111.266 61.7859 111.297 61.6141 111.374 61.4541C111.657 60.863 112.171 60.4785 112.616 60.0341C112.697 59.9526 112.791 59.9363 112.923 59.9793C113.214 60.0741 113.393 60.3104 113.622 60.48C113.716 60.5496 113.718 60.7793 113.642 60.883C113.606 60.9326 113.558 60.9741 113.511 61.0156C113.146 61.3437 112.841 61.7215 112.581 62.1348C112.457 62.3333 112.342 62.5407 112.294 62.7785C112.228 63.0933 112.31 63.5252 112.431 63.8207C112.668 64.4007 112.962 64.8985 113.541 65.1659C113.751 65.2622 113.982 65.2148 114.199 65.1333C114.502 65.02 114.655 64.7815 114.757 64.4896C114.868 64.18 114.982 63.8704 115.117 63.5719C115.196 63.3948 115.208 63.2067 115.228 63.0274C115.268 62.6896 115.375 62.3659 115.486 62.0459C115.606 61.6978 115.661 61.3963 115.931 61.1274C116.25 60.8074 116.589 60.5133 116.997 60.3104C117.434 60.0919 117.909 60.0548 118.39 60.0985C118.574 60.1156 118.745 60.1896 118.917 60.2511C119.175 60.3415 119.413 60.4733 119.635 60.6289C119.887 60.8052 120.031 60.9585 120.2 61.2074C120.387 61.4785 120.542 61.7652 120.633 62.0911C120.762 62.5511 120.816 63.0148 120.801 63.4889C120.79 63.8459 120.744 64.0089 120.434 64.58C120.176 65.0548 119.842 65.4756 119.407 65.803C119.166 65.9837 119.108 65.9719 118.867 65.8C118.686 65.6711 118.558 65.4948 118.416 65.3326C118.308 65.2096 118.319 65.1007 118.416 64.9674C118.501 64.8496 118.581 64.7215 118.687 64.6274C119.035 64.3193 119.179 63.8926 119.369 63.4926C119.588 63.0296 119.465 62.6015 119.215 62.1948C119.084 61.9822 118.868 61.7874 118.645 61.6726C118.339 61.5156 117.742 61.4526 117.482 61.7089C117.251 61.9378 117.037 62.1867 116.876 62.4711C116.728 62.7341 116.708 63.0378 116.596 63.3141C116.459 63.657 116.479 64.0363 116.322 64.3785C116.15 64.7526 116.022 65.157 115.793 65.4941C115.525 65.8896 115.227 66.2785 114.779 66.5141C114.577 66.62 114.363 66.6385 114.153 66.6733C113.685 66.7489 113.243 66.6274 112.798 66.4815C112.276 66.3111 111.954 65.9119 111.606 65.537C111.345 65.2548 111.177 64.9163 111.064 64.5504C111.06 64.54 111.054 64.5311 111.053 64.5207C110.99 64.1652 110.928 63.8111 110.876 63.5133V63.5126Z" fill="black"/>
</svg>
