<svg width="64" height="64" viewBox="0 0 64 64" fill="none" xmlns="http://www.w3.org/2000/svg">
<path d="M63.4689 26.6787L62.6472 23.081L41.0422 27.6121L58.2564 14.3749L55.2505 10.6064L37.9507 24.4017L47.791 3.97001L44.4661 2.36876L33.7842 23.3573L34.1445 0H29.3244V22.4972L19.5126 2.12313L16.1876 3.72437L25.6427 24.2786L8.57083 10.1635L5.56556 13.9328L22.5193 27.4533L0.947647 22.5292L0.126021 26.1269L22.1704 31.57L0 36.2192L1.07296 40.919L23.7197 35.7507L5.21241 50.5087L7.51354 53.3936L25.8869 39.2658L15.6778 59.5394L20.0209 61.6312L29.3244 42.3145V64H33.0146L33.4176 41.1803L42.9382 61.8769L47.2812 59.7851L37.4417 39.3533L55.6029 53.8365L57.9033 50.9508L39.6951 35.8967L62.2699 41.4708L63.3428 36.771L41.2963 31.7387L63.4689 26.6787Z" fill="black"/>
</svg>
