<svg width="64" height="64" viewBox="0 0 64 64" fill="none" xmlns="http://www.w3.org/2000/svg">
<path d="M30.8822 0L28.2324 16.6218L19.8366 2.07231L15.0319 4.84622L21.0489 20.5647L6.50419 12.1652L3.73389 16.9687L16.8025 27.5711H0V33.119L16.6188 35.7688L2.0717 44.1634L4.84622 48.9681L20.5647 42.9511L12.1652 57.4982L16.9693 60.2715L27.5687 47.2029V64H33.1166L35.7634 47.3812L44.1622 61.9277L48.9663 59.1538L42.9493 43.4353L57.4976 51.8366L60.2715 47.0325L47.2029 36.4331H64V30.8822L47.3782 28.2324L61.9253 19.8336L59.1514 15.0295L43.4329 21.0459L51.8366 6.50419L47.0349 3.72847L36.4355 16.7971V0H30.8822Z" fill="#F35F2A"/>
</svg>
