<svg width="64" height="64" viewBox="0 0 64 64" fill="none" xmlns="http://www.w3.org/2000/svg">
<path d="M55.3077 54.3887L58.3689 50.6048L55.5681 48.5232L53.0156 46.2132L50.2937 44.1136L47.6295 41.9432L44.8072 39.9651L42.3371 37.7219L45.482 38.7964L48.8291 39.6078L52.1005 40.6369L55.4228 41.5158L58.6822 42.6077L61.9369 43.6842L63.3292 39.0489L59.9674 38.0772L56.4724 37.2244L53.0337 36.1692L49.5266 35.3491L46.0624 34.3728L42.801 33.2909L46.2056 32.9289L49.8031 32.8628L53.3818 32.4314L56.943 31.9292L60.5405 31.8284L64 31.4511L63.6499 27.6959L59.8885 27.9917L56.2576 28.164L52.6367 28.5086L49.0018 28.6101L45.389 29.115L41.7299 29.2773L45.0803 27.7239L48.2607 25.8974L51.4512 24.089L54.744 22.4795L57.9974 20.7793L61.2762 19.1732L59.0785 14.7195L55.9797 16.6548L52.7599 18.1908L49.6913 20.0053L46.6642 21.8945L43.5876 23.6983L40.5317 25.241L42.7515 22.6752L44.9833 19.9278L47.2004 17.1677L49.2367 14.268L51.5148 11.5593L53.6281 8.77851L51.2316 6.90327L48.9154 9.45301L46.6689 12.0482L44.2175 14.4583L41.9221 17.0087L39.6206 19.5592L37.2797 22.3426L38.5904 18.9047L39.6132 15.5776L40.6944 12.2726L41.7058 8.93812L43.0145 5.70453L43.9986 2.51034L39.5008 1.24549L38.6198 4.58526L37.275 7.7888L36.2066 11.0758L35.1141 14.3595L34.2512 17.7186L33.1306 20.8981L32.7738 17.5223L32.5784 14.0256L32.5703 10.5282L32.1071 7.06288L31.9438 3.56617L31.7068 0L26.8114 0.798714L27.205 4.10577L27.4808 7.54104L27.6602 10.9837L28.1549 14.3976L28.4655 17.8308L28.6489 21.1773L26.8609 18.3571L25.1425 15.3799L23.6471 12.2799L21.8651 9.34216L20.2263 6.31826L18.5173 3.45464L15.5712 4.89446L17.2093 8.25093L18.8474 11.5339L20.8134 14.6513L22.4327 17.9457L24.0848 21.2234L25.5669 24.3641L22.9823 21.9813L20.0851 19.652L17.3653 17.1189L14.6454 14.5879L11.866 12.121L8.91258 9.70478L6.13518 13.5615L8.79744 15.9823L11.777 18.1267L14.5296 20.5616L17.2876 22.9878L20.1641 25.275L23.1303 27.4855L19.6359 26.3315L16.0425 25.5909L12.5401 24.5284L9.01701 23.5394L5.51731 22.4542L1.97209 21.4404L0.471268 25.7118L4.02117 26.4604L7.5704 27.4368L11.0848 28.5307L14.6863 29.312L18.2415 30.2723L21.766 31.2093L18.1712 31.4697L14.5711 32.012L10.9489 32.3439L7.36088 32.979L3.73868 33.3243L0 33.4832L0.534192 36.7863L3.91273 36.5372L7.37092 36.455L10.8231 36.2774L14.2699 36.0069L17.7207 35.8186L21.1689 35.4987L18.1364 37.1529L15.1649 38.9253L12.1432 40.6156L9.10403 42.2718L6.11577 44.0208L3.086 45.677L4.69929 48.3296L7.76788 46.7649L11.1022 45.4346L14.2505 43.7269L17.4563 42.1369L20.6461 40.5107L23.7381 38.9754L21.4875 41.6514L19.0729 44.35L16.5493 46.9539L14.3623 49.8562L11.9423 52.5542L9.52108 55.1166L13.0964 58.0444L15.5953 55.1954L17.8158 52.2944L20.0054 49.3674L22.6724 46.843L24.9852 44.0174L27.1434 41.2907L26.0864 44.6105L24.8895 48.0685L24.0413 51.6319L23.0807 55.1627L22.0097 58.6641L20.713 62.1194L25.3059 63.6447L26.403 60.2956L27.0577 56.847L27.9674 53.4731L28.9133 50.1046L29.9757 46.7629L30.9115 43.2301L31.3205 46.8423L31.6312 50.301L32.0683 53.7443L32.2765 57.2149L32.6246 60.6722L33.2364 64L37.0989 63.6601L36.8606 60.1914L36.6585 56.6433L36.1624 53.1239L35.8679 49.5771L35.4368 46.0583L35.1898 42.7145L36.6277 45.7705L38.344 48.9173L39.8857 52.1502L41.5686 55.311L43.0406 58.578L44.6352 61.7935L49.2147 59.0995L47.5819 56.1037L45.8475 52.9649L44.2443 49.7574L42.1677 46.817L40.4667 43.6622L38.9117 40.6102L41.663 42.6498L44.3386 45.0225L47.0879 47.3125L49.7241 49.7347L52.6574 51.8056L55.309 54.3907L55.3077 54.3887Z" fill="#E15736"/>
</svg>
